<svg width="23" height="49" viewBox="0 0 23 49" fill="none" xmlns="http://www.w3.org/2000/svg">
<path d="M17.0775 27.4475C17.0775 26.638 17.0775 25.3429 17.0775 22.9955C17.0775 22.4289 17.0775 21.7813 16.4301 20.5671C15.7828 19.3529 14.569 17.4912 14.569 17.4912C13.9216 16.277 14.2453 15.3866 14.2453 14.1724V11.5822C14.2453 11.1774 13.9216 10.8536 13.517 10.8536H11.2512V9.31567H5.18216V10.8536H3.48282C3.07822 10.8536 2.75454 11.1774 2.75454 11.5822V14.1724C2.75454 15.3866 3.07822 16.277 2.43086 17.4912C2.43086 17.4912 1.21704 19.3529 0.569679 20.5671C-0.0776861 21.7813 0.00323708 22.4289 0.00323708 22.9955C0.00323708 31.8995 0.00323708 44.4461 0.00323708 46.4697C0.40784 48.0077 1.21704 48.5743 2.5927 48.9791C5.66768 48.9791 8.90451 48.9791 12.1413 48.9791C13.2742 48.9791 14.488 49.1409 15.6209 48.5743C16.1874 48.0077 16.9157 47.4411 17.0775 46.4697V43.8795V27.4475ZM5.82952 29.3093C5.82952 29.1474 5.91045 28.9855 5.99137 28.9045C6.07229 28.8236 6.23413 28.7426 6.39597 28.7426H15.6209V31.4948H8.82359C8.66175 31.8186 8.58083 32.0614 8.41899 32.3852C8.74267 32.628 9.06635 32.8709 9.47095 33.1137H15.6209V38.1323H13.3551H9.06635L8.49991 38.618C8.74267 38.9418 8.98543 39.2656 9.22819 39.5084H15.6209V42.3415C15.6209 42.3415 8.66174 42.3415 6.23413 42.3415C5.91044 42.1796 5.7486 41.8558 5.7486 41.4511C5.82952 39.2656 5.82952 31.5757 5.82952 29.3093ZM2.10717 21.2147C2.67362 20.0815 3.80651 18.3816 3.80651 18.3006L3.88742 18.2197L3.96835 18.1388C4.61572 16.8436 4.53479 15.7913 4.45387 14.9009C4.45387 14.6581 4.45387 14.4153 4.45387 14.0915V12.2297H12.9505V14.0915C12.9505 14.3343 12.9505 14.5772 12.9505 14.9009C12.8696 15.7913 12.7887 16.8436 13.4361 18.1388L13.517 18.2197L13.5979 18.3006C13.5979 18.3006 14.7308 20.0815 15.2972 21.2147C15.54 21.6194 15.6209 21.9432 15.7018 22.267H1.70257C1.70257 21.9432 1.86441 21.7004 2.10717 21.2147ZM15.7018 46.3888C15.7018 46.3888 15.1354 47.0364 14.8117 47.3601H2.34994C2.10718 47.1173 1.78349 46.8745 1.62165 46.7126V24.4525H15.7018V27.0428C15.7018 27.0428 9.47095 27.0428 6.55781 27.0428C6.47689 27.0428 6.31505 27.0428 6.23413 27.1237C5.58676 27.4475 4.77755 27.6094 4.53479 28.4189C4.53479 28.4998 4.53479 28.4998 4.53479 28.5808V42.4225C5.02032 42.9081 5.58676 43.4747 6.15321 44.0414H15.7828V46.3888H15.7018Z" fill="white"/>
<path d="M15.1353 4.13526C15.1353 4.45905 15.378 4.78284 15.7826 4.78284H18.8576C19.1813 4.78284 19.505 4.53999 19.505 4.13526C19.505 3.81146 19.2622 3.48767 18.8576 3.48767H15.7826C15.378 3.56862 15.1353 3.81146 15.1353 4.13526Z" fill="white"/>
<path d="M20.6382 4.13526C20.6382 4.45905 20.8809 4.78284 21.2855 4.78284H21.9329C22.2566 4.78284 22.5803 4.53999 22.5803 4.13526C22.5803 3.81146 22.3375 3.48767 21.9329 3.48767H21.2855C20.8809 3.56862 20.6382 3.81146 20.6382 4.13526Z" fill="white"/>
<path d="M15.0543 6.9684L16.8346 7.37313C16.9155 7.37313 16.9155 7.37313 16.9964 7.37313C17.3201 7.37313 17.6438 7.13029 17.7247 6.80651C17.8056 6.40178 17.5629 5.99704 17.1583 5.91609L15.378 5.51136C14.9734 5.43041 14.5688 5.67325 14.4879 6.07798C14.326 6.48271 14.6497 6.88745 15.0543 6.9684Z" fill="white"/>
<path d="M19.8285 6.4015C19.4239 6.32055 19.0193 6.56339 18.9384 6.96812C18.8574 7.37285 19.1002 7.77759 19.5048 7.85854L20.0712 8.02043C20.1522 8.02043 20.1522 8.02043 20.2331 8.02043C20.5568 8.02043 20.8805 7.77759 20.9614 7.4538C21.0423 7.04907 20.7995 6.64433 20.3949 6.56339L19.8285 6.4015Z" fill="white"/>
<path d="M15.2164 2.84004C15.2974 2.84004 15.2974 2.84004 15.3783 2.84004L17.1585 2.4353C17.5631 2.35436 17.8059 1.94963 17.725 1.5449C17.6441 1.14017 17.2394 0.897332 16.8348 0.978278L15.0546 1.38301C14.65 1.46396 14.4072 1.86868 14.4882 2.27341C14.4882 2.5972 14.8118 2.84004 15.2164 2.84004Z" fill="white"/>
<path d="M19.6666 1.94973C19.7476 1.94973 19.7476 1.94973 19.8285 1.94973L20.3949 1.78784C20.7995 1.7069 21.0423 1.30216 20.9614 0.897436C20.8805 0.492706 20.4758 0.249871 20.0712 0.330817L19.5048 0.492706C19.1002 0.573652 18.8574 0.978386 18.9384 1.38312C19.0193 1.7069 19.262 1.94973 19.6666 1.94973Z" fill="white"/>
<path d="M11.8178 0.735352H4.85866L4.13037 1.46386V7.61575L4.85866 8.34426H11.8178L12.5461 7.61575V1.46386L11.8178 0.735352ZM11.0086 6.96818H5.50602V2.27332H11.0086V6.96818Z" fill="white"/>
</svg>
